<?xml version="1.0" ?><!DOCTYPE svg  PUBLIC '-//W3C//DTD SVG 1.1//EN'  'http://www.w3.org/Graphics/SVG/1.1/DTD/svg11.dtd'><svg id="Layer_1" style="enable-background:new 0 0 76 76;" version="1.1" viewBox="0 0 76 76" xml:space="preserve" xmlns="http://www.w3.org/2000/svg" xmlns:xlink="http://www.w3.org/1999/xlink"><style type="text/css">
	.st0{fill:#3DA5AA;}
	.st1{fill:#EDEFF4;}
	.st2{fill:#543D53;}
	.st3{fill:#EF716F;}
	.st4{fill:#F2E199;}
	.st5{fill:#6D7C7C;}
	.st6{fill:#E1E3EA;}
	.st7{fill:#FFFFFF;}
	.st8{fill:#F7796B;}
	.st9{opacity:0.3;}
	.st10{fill:#E8635E;}
	.st11{fill:#CC4848;}
	.st12{fill:#8E8D96;}
	.st13{fill:#E26959;}
	.st14{fill:#A3E2E5;}
	.st15{fill:#E5C67A;}
	.st16{fill:#FC7D70;}
	.st17{fill:none;stroke:#543D53;stroke-width:1.5;stroke-linecap:round;stroke-linejoin:round;stroke-miterlimit:10;}
	.st18{fill:#FFFFFF;stroke:#543D53;stroke-width:1.5;stroke-linecap:round;stroke-linejoin:round;stroke-miterlimit:10;}
	.st19{fill:#97C97D;}
	.st20{fill:#BEEAA2;}
	.st21{fill:#F0C419;}
	.st22{fill:#DDDDE7;}
	.st23{fill:#89BC6C;}
	.st24{fill:#EDEFF4;stroke:#543D53;stroke-width:1.5;stroke-linecap:round;stroke-linejoin:round;stroke-miterlimit:10;}
	.st25{fill:#9B9BA5;}
	.st26{fill:#F77F7F;}
	.st27{fill:#A3E2E5;stroke:#543D53;stroke-width:1.5;stroke-linecap:round;stroke-linejoin:round;stroke-miterlimit:10;}
	.st28{fill:#EF716F;stroke:#543D53;stroke-width:1.5;stroke-linecap:round;stroke-linejoin:round;stroke-miterlimit:10;}
	.st29{fill:#3DA5AA;stroke:#543D53;stroke-width:1.5;stroke-linecap:round;stroke-linejoin:round;stroke-miterlimit:10;}
	.st30{fill:#70737F;stroke:#543D53;stroke-width:1.5;stroke-linecap:round;stroke-linejoin:round;stroke-miterlimit:10;}
	.st31{fill:#6D7C7C;stroke:#543D53;stroke-width:1.5;stroke-linecap:round;stroke-linejoin:round;stroke-miterlimit:10;}
	.st32{fill:#E1E3EA;stroke:#543D53;stroke-width:1.5;stroke-linecap:round;stroke-linejoin:round;stroke-miterlimit:10;}
	.st33{fill:#F2E199;stroke:#543D53;stroke-width:1.5;stroke-linecap:round;stroke-linejoin:round;stroke-miterlimit:10;}
	.st34{fill:#E5C67A;stroke:#543D53;stroke-width:1.5;stroke-linecap:round;stroke-linejoin:round;stroke-miterlimit:10;}
	.st35{fill:#8E8D96;stroke:#543D53;stroke-width:1.5;stroke-linecap:round;stroke-linejoin:round;stroke-miterlimit:10;}
	.st36{fill:#533D53;}
	.st37{opacity:0.3;fill:#3DA5AA;}
	.st38{fill:none;stroke:#533D53;stroke-width:1.5;stroke-linecap:round;stroke-linejoin:round;stroke-miterlimit:10;}
	.st39{opacity:0.5;}
	.st40{fill:#E0C74C;}
	.st41{fill:#EACE7F;}
</style><g><g><circle class="st0" cx="38" cy="38" r="32"/></g><path class="st3" d="M60.8,60.5v-41H18.7v3.4L51.5,67C55,65.4,58.1,63.2,60.8,60.5z"/><path class="st2" d="M61.5,19.5c0-0.4-0.3-0.8-0.8-0.8H18.7c-0.4,0-0.8,0.3-0.8,0.8v3.4c0,0.2,0.1,0.3,0.1,0.4l32.8,44   c0.5-0.2,0.9-0.4,1.4-0.6l-32.8-44v-2.4H60v41c0.5-0.5,1-1,1.5-1.5V19.5z"/><path class="st1" d="M15.2,22.9v37.6C21,66.4,29.1,70,38,70c7.3,0,13.9-2.4,19.3-6.5v-31l-9.7-9.6H15.2z"/><path class="st2" d="M48.1,22.4c-0.1-0.1-0.3-0.2-0.5-0.2H15.2c-0.4,0-0.8,0.3-0.8,0.8v36.8c0.5,0.5,1,1,1.5,1.5V23.6h31.3l9.3,9.2   v31.2c0.5-0.4,1-0.7,1.5-1.1V32.5c0-0.2-0.1-0.4-0.2-0.5L48.1,22.4z"/><polygon class="st12" points="57.3,32.5 47.6,22.9 47.6,32.5  "/><path class="st2" d="M57.3,33.3h-9.7c-0.4,0-0.8-0.3-0.8-0.8v-9.6c0-0.3,0.2-0.6,0.5-0.7c0.3-0.1,0.6-0.1,0.8,0.2l9.7,9.6   c0.2,0.2,0.3,0.5,0.2,0.8C57.9,33.1,57.6,33.3,57.3,33.3z M48.3,31.8h7.1l-7.1-7.1V31.8z"/><path class="st2" d="M51.9,37.1H20.6c-0.4,0-0.8-0.3-0.8-0.8s0.3-0.8,0.8-0.8h31.3c0.4,0,0.8,0.3,0.8,0.8S52.3,37.1,51.9,37.1z"/><path class="st2" d="M51.9,45.9H20.6c-0.4,0-0.8-0.3-0.8-0.8s0.3-0.8,0.8-0.8h31.3c0.4,0,0.8,0.3,0.8,0.8S52.3,45.9,51.9,45.9z"/><path class="st2" d="M51.9,54.6H20.6c-0.4,0-0.8-0.3-0.8-0.8s0.3-0.8,0.8-0.8h31.3c0.4,0,0.8,0.3,0.8,0.8S52.3,54.6,51.9,54.6z"/><path class="st2" d="M51.9,63.3H20.6c-0.4,0-0.8-0.3-0.8-0.8s0.3-0.8,0.8-0.8h31.3c0.4,0,0.8,0.3,0.8,0.8S52.3,63.3,51.9,63.3z"/><path class="st2" d="M26.5,31.4c-1.8,0-3.3-1.5-3.3-3.3V16.4c0-2.5,2-4.5,4.5-4.5s4.5,2,4.5,4.5v3.1c0,0.4-0.3,0.8-0.8,0.8   s-0.8-0.3-0.8-0.8v-3.1c0-1.7-1.4-3-3-3s-3,1.4-3,3v11.8c0,1,0.8,1.8,1.8,1.8s1.8-0.8,1.8-1.8v-7.4c0-0.3-0.2-0.5-0.5-0.5   s-0.5,0.2-0.5,0.5v4.9c0,0.4-0.3,0.8-0.8,0.8s-0.8-0.3-0.8-0.8v-4.9c0-1.1,0.9-2,2-2s2,0.9,2,2v7.4C29.8,29.9,28.3,31.4,26.5,31.4z   "/></g></svg>